<svg version="1.1" id="Layer_1" xmlns="http://www.w3.org/2000/svg" xmlns:xlink="http://www.w3.org/1999/xlink" x="0px" y="0px" width="100%" viewBox="0 0 640 682" enable-background="new 0 0 640 682" xml:space="preserve">

<path fill="#E9592C" opacity="1.000000" stroke="none" d="
M360.767517,366.056763 
	C361.479584,375.247498 359.617981,383.851746 354.271790,391.841217 
	C353.041351,391.579895 352.438965,391.282379 351.899963,390.608887 
	C352.020172,388.096619 352.076965,385.960297 352.213074,383.564514 
	C352.538513,382.625122 352.784637,381.945190 353.205750,381.000885 
	C353.609314,380.154358 353.837860,379.572266 354.200928,378.783386 
	C352.557495,376.720459 350.779572,374.864319 348.982178,372.642761 
	C348.323364,370.984619 347.978729,369.381439 346.996948,368.449432 
	C340.522644,362.303253 333.993652,356.207947 327.297699,350.305756 
	C325.091675,348.361237 322.406036,346.917480 319.818756,345.459381 
	C316.132996,343.382141 312.687195,343.839233 309.143158,346.305359 
	C303.742340,350.063599 298.281555,353.831940 292.465271,356.865631 
	C288.037811,359.174957 284.648560,361.750305 283.585510,366.961639 
	C281.441772,368.310333 279.685638,369.630341 277.945496,370.971039 
	C276.398560,372.162842 274.869324,373.377686 273.332306,374.582367 
	C273.332306,374.582367 273.250793,374.446838 273.339539,374.181976 
	C273.432556,373.618286 273.372375,373.333099 273.247742,373.061523 
	C273.511017,367.961670 273.774292,362.861847 274.536621,357.357849 
	C277.149719,356.922272 279.528595,356.249451 281.323730,356.990540 
	C285.272919,358.620880 286.351440,356.149353 287.374023,353.485535 
	C287.885925,352.152008 287.861664,350.612732 288.275513,348.866089 
	C295.363220,331.384705 302.255341,314.203674 309.299744,296.793823 
	C309.641876,296.050903 309.831757,295.536774 310.050476,294.788666 
	C310.079346,294.554657 310.146637,294.087891 310.545013,294.081726 
	C313.499603,295.239716 317.205383,295.721130 318.383179,297.704071 
	C321.215942,302.473389 323.444244,307.792084 324.873535,313.166504 
	C328.227448,325.777832 333.312225,337.558899 340.407532,348.445953 
	C342.063751,350.987274 344.707794,352.884766 346.991852,355.408203 
	C347.374481,356.847046 347.662628,357.956146 347.964111,359.451660 
	C348.497925,361.986176 349.018433,364.134277 349.717010,367.017273 
	C354.383911,362.634033 356.492676,366.853088 359.260284,368.914093 
	C359.868439,367.761169 360.317993,366.908966 360.767517,366.056763 
z" data-index="1" style="visibility: visible;"></path>
<path fill="#E43B2E" opacity="1.000000" stroke="none" d="
M353.030792,381.265289 
	C352.784637,381.945190 352.538513,382.625122 352.008179,383.280518 
	C351.319489,381.399445 350.915009,379.542816 350.330414,376.859619 
	C347.094604,380.673676 344.122620,383.754364 341.644958,387.191406 
	C337.408905,393.067749 331.528900,396.339203 324.768646,397.861969 
	C310.042267,401.179169 296.731354,395.366547 288.208038,382.541626 
	C286.038330,379.276917 283.421173,376.309570 281.009613,373.205597 
	C280.331573,373.559479 279.653534,373.913361 278.975494,374.267242 
	C279.362549,376.194946 279.749573,378.122650 280.263428,380.389038 
	C280.656830,382.398102 280.923401,384.068542 281.046967,386.053833 
	C281.734344,388.574738 282.564728,390.780823 283.634430,393.270081 
	C284.823975,395.107483 285.523651,396.905182 286.761963,398.179504 
	C305.703705,417.672363 336.136841,418.183136 349.765167,392.870239 
	C350.609406,392.164703 351.222992,391.574799 351.836578,390.984863 
	C352.438965,391.282379 353.041351,391.579895 353.967560,391.974182 
	C345.966034,407.633453 332.641876,415.054474 315.362579,414.109650 
	C296.838989,413.096771 283.475861,403.665161 276.124084,386.351257 
	C275.223114,384.229431 274.778748,381.913727 274.272888,379.032043 
	C274.155731,377.524353 273.888458,376.672516 273.621216,375.820648 
	C273.334808,375.634338 273.201752,375.370667 273.277161,374.806000 
	C274.869324,373.377686 276.398560,372.162842 277.945496,370.971039 
	C279.685638,369.630341 281.441772,368.310333 283.899750,367.152618 
	C285.557343,367.618011 286.591583,367.758514 287.441101,368.231110 
	C293.151489,371.407715 298.417328,371.312195 304.330536,367.928284 
	C307.862640,365.906982 312.718292,364.919830 316.772888,365.361176 
	C324.766357,366.231232 332.877441,367.285004 339.766663,372.545624 
	C342.168915,374.380005 345.750488,376.890900 349.001648,373.008148 
	C350.779572,374.864319 352.557495,376.720459 354.014648,379.036469 
	C353.472839,380.085968 353.251801,380.675629 353.030792,381.265289 
z" data-index="2" style="visibility: visible;"></path>
<path fill="#F07429" opacity="1.000000" stroke="none" d="
M346.897369,355.078461 
	C344.707794,352.884766 342.063751,350.987274 340.407532,348.445953 
	C333.312225,337.558899 328.227448,325.777832 324.873535,313.166504 
	C323.444244,307.792084 321.215942,302.473389 318.383179,297.704071 
	C317.205383,295.721130 313.499603,295.239716 310.525940,293.683594 
	C310.593048,290.619476 311.077606,287.947327 311.562164,285.275208 
	C311.265686,285.240295 310.969208,285.205414 310.672729,285.170532 
	C308.955688,287.273560 307.238678,289.376556 305.521637,291.479584 
	C305.099182,291.261841 304.676727,291.044098 304.254272,290.826355 
	C304.254272,288.593781 304.254272,286.361206 304.254272,284.128632 
	C307.375732,271.004425 310.501038,257.881134 313.614838,244.755127 
	C314.123169,242.612366 313.909027,239.308365 317.212524,240.247940 
	C318.759583,240.687943 320.264740,243.425919 320.672058,245.357880 
	C322.642212,254.703094 324.062805,264.164246 326.038239,273.508209 
	C326.881897,277.498993 328.602448,281.304443 329.566406,285.647308 
	C326.199036,287.184021 324.533081,286.161041 323.766113,283.021820 
	C323.264191,280.967438 322.230133,279.043060 321.434418,277.060455 
	C320.915039,277.211884 320.395691,277.363312 319.876343,277.514740 
	C320.215729,280.384888 320.063110,283.423706 320.979126,286.096222 
	C325.071503,298.035614 329.342499,309.918060 333.792450,321.729340 
	C338.002960,332.905151 342.516876,343.966675 346.897369,355.078461 
z" data-index="3" style="visibility: visible;"></path>
<path fill="#E32921" opacity="1.000000" stroke="none" d="
M182.294983,381.502075 
	C180.829132,372.374756 187.985184,363.495331 197.362869,362.167725 
	C204.989471,361.088043 213.846741,367.224854 215.939896,374.888611 
	C218.460312,384.116730 212.543488,393.604126 202.749710,396.038574 
	C194.227707,398.156860 185.157562,392.550446 182.958389,383.812469 
	C182.796890,383.170776 182.577332,382.543762 182.294983,381.502075 
z" data-index="4" style="visibility: visible;"></path>
<path fill="#E32921" opacity="1.000000" stroke="none" d="
M125.490372,382.270935 
	C124.684059,373.503082 127.833603,367.711395 135.234024,364.183929 
	C141.844193,361.033112 148.177261,361.979218 153.795792,366.454407 
	C159.634048,371.104614 161.323669,377.721527 158.955215,384.749420 
	C156.694855,391.456604 149.664230,396.092926 141.902939,395.994568 
	C133.752213,395.891235 128.361664,391.471436 125.490372,382.270935 
z" data-index="5" style="visibility: visible;"></path>
<path fill="#E32921" opacity="1.000000" stroke="none" d="
M431.107391,370.248993 
	C440.168121,359.085999 455.182556,360.003448 461.470154,371.756927 
	C464.410858,377.253998 463.535706,384.967834 459.411041,389.906281 
	C454.805450,395.420563 447.470703,397.462189 440.563293,395.152618 
	C434.044769,392.973114 429.145569,387.388153 429.113007,381.079742 
	C429.094971,377.585449 430.301239,374.084869 431.107391,370.248993 
z" data-index="6" style="visibility: visible;"></path>
<path fill="#E32921" opacity="1.000000" stroke="none" d="
M492.628784,365.503479 
	C501.086304,359.618469 512.134521,363.018188 516.822449,369.630707 
	C521.842468,376.711639 520.667603,386.443085 514.116882,392.087646 
	C506.752441,398.433472 495.752258,397.382965 489.316406,389.719299 
	C482.897064,382.075348 484.067322,372.740997 492.628784,365.503479 
z" data-index="7" style="visibility: visible;"></path>
<path fill="#F7982F" opacity="1.000000" stroke="none" d="
M346.991852,355.408203 
	C342.516876,343.966675 338.002960,332.905151 333.792450,321.729340 
	C329.342499,309.918060 325.071503,298.035614 320.979126,286.096222 
	C320.063110,283.423706 320.215729,280.384888 319.876343,277.514740 
	C320.395691,277.363312 320.915039,277.211884 321.434418,277.060455 
	C322.230133,279.043060 323.264191,280.967438 323.766113,283.021820 
	C324.533081,286.161041 326.199036,287.184021 329.550110,286.025085 
	C338.748230,306.012848 347.637421,326.061646 356.419586,346.157288 
	C357.532471,348.703796 358.084290,351.495483 358.610413,354.385010 
	C356.292511,353.243378 354.260223,351.890320 352.965027,351.028015 
	C350.957550,354.245758 349.454163,356.655487 347.950775,359.065247 
	C347.662628,357.956146 347.374481,356.847046 346.991852,355.408203 
z" data-index="8" style="visibility: visible;"></path>
<path fill="#F7982F" opacity="1.000000" stroke="none" d="
M304.118530,284.462280 
	C304.254272,286.361206 304.254272,288.593781 304.254272,290.826355 
	C304.676727,291.044098 305.099182,291.261841 305.521637,291.479584 
	C307.238678,289.376556 308.955688,287.273560 310.672729,285.170532 
	C310.969208,285.205414 311.265686,285.240295 311.562164,285.275208 
	C311.077606,287.947327 310.593048,290.619476 310.127563,293.689758 
	C310.146637,294.087891 310.079346,294.554657 309.882568,295.009705 
	C309.506378,295.984070 309.326935,296.503357 309.147491,297.022644 
	C302.255341,314.203674 295.363220,331.384705 287.973267,348.665222 
	C285.322510,345.535950 284.662231,340.862610 279.511078,340.535553 
	C285.450592,327.283783 291.429535,314.049500 297.310120,300.771637 
	C299.646606,295.496124 301.765076,290.124054 304.118530,284.462280 
z" data-index="9" style="visibility: visible;"></path>
<path fill="#E32921" opacity="1.000000" stroke="none" d="
M84.322037,375.896484 
	C86.310402,368.571350 92.167656,365.666901 97.284058,369.670807 
	C99.245064,371.205383 100.764954,374.782623 100.508400,377.221008 
	C100.288719,379.308960 97.403267,382.471710 95.413811,382.700775 
	C92.423042,383.045044 89.071220,381.502625 86.116768,380.206482 
	C85.139107,379.777557 84.914459,377.632172 84.322037,375.896484 
z" data-index="10" style="visibility: visible;"></path>
<path fill="#E32921" opacity="1.000000" stroke="none" d="
M549.758667,368.517029 
	C556.864685,367.909607 561.517578,371.774475 560.352417,376.951355 
	C559.503662,380.722260 557.277649,383.184265 553.195374,383.312653 
	C548.994202,383.444824 545.542236,381.821625 544.378784,377.615570 
	C543.188232,373.311005 545.275635,370.284363 549.758667,368.517029 
z" data-index="11" style="visibility: visible;"></path>
<path fill="#F07429" opacity="1.000000" stroke="none" d="
M279.516479,340.564087 
	C284.662231,340.862610 285.322510,345.535950 287.777649,348.965637 
	C287.861664,350.612732 287.885925,352.152008 287.374023,353.485535 
	C286.351440,356.149353 285.272919,358.620880 281.323730,356.990540 
	C279.528595,356.249451 277.149719,356.922272 274.643494,356.946106 
	C275.576416,352.419708 276.901520,347.900970 278.663635,342.910767 
	C279.260468,341.825043 279.420258,341.210785 279.580048,340.596527 
	C279.580048,340.596527 279.521881,340.592651 279.516479,340.564087 
z" data-index="12" style="visibility: visible;"></path>
<path fill="#F07429" opacity="1.000000" stroke="none" d="
M347.964111,359.451660 
	C349.454163,356.655487 350.957550,354.245758 352.965027,351.028015 
	C354.260223,351.890320 356.292511,353.243378 358.595215,354.772888 
	C359.539581,358.369171 360.213562,361.789032 360.827515,365.632812 
	C360.317993,366.908966 359.868439,367.761169 359.260284,368.914093 
	C356.492676,366.853088 354.383911,362.634033 349.717010,367.017273 
	C349.018433,364.134277 348.497925,361.986176 347.964111,359.451660 
z" data-index="13" style="visibility: visible;"></path>
<path fill="#F7982F" opacity="1.000000" stroke="none" d="
M279.402527,340.767761 
	C279.420258,341.210785 279.260468,341.825043 278.943268,342.614014 
	C278.932220,342.172150 279.078613,341.555542 279.402527,340.767761 
z" data-index="14" style="visibility: visible;"></path>
<path fill="#E9592C" opacity="1.000000" stroke="none" d="
M273.617920,376.075409 
	C273.888458,376.672516 274.155731,377.524353 274.326233,378.637024 
	C274.177185,378.706055 274.124939,378.514343 274.059692,377.774261 
	C274.004364,377.063354 273.962006,376.900818 273.919678,376.738281 
	C273.817993,376.602264 273.716309,376.466217 273.617920,376.075409 
z" data-index="15" style="visibility: visible;"></path>
<path fill="#E43B2E" opacity="1.000000" stroke="none" d="
M273.179352,373.280823 
	C273.372375,373.333099 273.432556,373.618286 273.406281,374.139526 
	C273.159912,374.116852 273.068817,373.829590 273.179352,373.280823 
z" data-index="16" style="visibility: visible;"></path>
<path fill="#E43B2E" opacity="1.000000" stroke="none" d="
M273.831909,376.860504 
	C273.962006,376.900818 274.004364,377.063354 274.075623,377.476593 
	C273.838440,377.559265 273.718323,377.311096 273.831909,376.860504 
z" data-index="17" style="visibility: visible;"></path>
<path fill="#E74A2D" opacity="1.000000" stroke="none" d="
M348.982178,372.642761 
	C345.750488,376.890900 342.168915,374.380005 339.766663,372.545624 
	C332.877441,367.285004 324.766357,366.231232 316.772888,365.361176 
	C312.718292,364.919830 307.862640,365.906982 304.330536,367.928284 
	C298.417328,371.312195 293.151489,371.407715 287.441101,368.231110 
	C286.591583,367.758514 285.557343,367.618011 284.294312,367.132904 
	C284.648560,361.750305 288.037811,359.174957 292.465271,356.865631 
	C298.281555,353.831940 303.742340,350.063599 309.143158,346.305359 
	C312.687195,343.839233 316.132996,343.382141 319.818756,345.459381 
	C322.406036,346.917480 325.091675,348.361237 327.297699,350.305756 
	C333.993652,356.207947 340.522644,362.303253 346.996948,368.449432 
	C347.978729,369.381439 348.323364,370.984619 348.982178,372.642761 
z" data-index="18" style="visibility: visible;"></path>
<path fill="#E32921" opacity="1.000000" stroke="none" d="
M280.136597,380.050385 
	C279.749573,378.122650 279.362549,376.194946 278.975494,374.267242 
	C279.653534,373.913361 280.331573,373.559479 281.009613,373.205597 
	C283.421173,376.309570 286.038330,379.276917 288.208038,382.541626 
	C296.731354,395.366547 310.042267,401.179169 324.768646,397.861969 
	C331.528900,396.339203 337.408905,393.067749 341.644958,387.191406 
	C344.122620,383.754364 347.094604,380.673676 350.330414,376.859619 
	C350.915009,379.542816 351.319489,381.399445 351.928894,383.540009 
	C352.076965,385.960297 352.020172,388.096619 351.899963,390.608887 
	C351.222992,391.574799 350.609406,392.164703 349.451691,392.945923 
	C348.106506,391.451477 347.305389,389.765686 346.347168,387.749329 
	C344.306976,389.531372 342.118408,391.471191 339.899811,393.376068 
	C329.541229,402.269867 317.983215,405.586121 304.852783,400.472198 
	C296.849030,397.354950 291.449219,391.014679 286.069000,384.649719 
	C284.489044,382.780579 282.135590,381.565308 280.136597,380.050385 
z" data-index="19" style="visibility: visible;"></path>
<path fill="#F07429" opacity="1.000000" stroke="none" d="
M309.299744,296.793823 
	C309.326935,296.503357 309.506378,295.984070 309.853699,295.243713 
	C309.831757,295.536774 309.641876,296.050903 309.299744,296.793823 
z" data-index="20" style="visibility: visible;"></path>
<path fill="#E32921" opacity="1.000000" stroke="none" d="
M353.205750,381.000885 
	C353.251801,380.675629 353.472839,380.085968 353.880157,379.243225 
	C353.837860,379.572266 353.609314,380.154358 353.205750,381.000885 
z" data-index="21" style="visibility: visible;"></path>
<path fill="#5B0509" opacity="1.000000" stroke="none" d="
M280.263428,380.389038 
	C282.135590,381.565308 284.489044,382.780579 286.069000,384.649719 
	C291.449219,391.014679 296.849030,397.354950 304.852783,400.472198 
	C317.983215,405.586121 329.541229,402.269867 339.899811,393.376068 
	C342.118408,391.471191 344.306976,389.531372 346.347168,387.749329 
	C347.305389,389.765686 348.106506,391.451477 349.221069,393.061554 
	C336.136841,418.183136 305.703705,417.672363 286.761963,398.179504 
	C285.523651,396.905182 284.823975,395.107483 283.778748,392.930969 
	C282.852509,390.118774 282.021240,387.928894 281.189972,385.738983 
	C280.923401,384.068542 280.656830,382.398102 280.263428,380.389038 
z" data-index="22" style="visibility: visible;"></path>
<path fill="#E32921" opacity="1.000000" stroke="none" d="
M281.046967,386.053833 
	C282.021240,387.928894 282.852509,390.118774 283.539429,392.647797 
	C282.564728,390.780823 281.734344,388.574738 281.046967,386.053833 
z" data-index="23" style="visibility: visible;"></path>
</svg>